<?xml version="1.0" encoding="UTF-8"?>
<svg viewBox="0 0 92 92" version="1.1" xmlns="http://www.w3.org/2000/svg" xmlns:xlink="http://www.w3.org/1999/xlink">
    <defs>
        <rect id="path-1" x="0" y="0" width="92" height="92" rx="19"></rect>
        <linearGradient x1="36.8131874%" y1="8.02930256%" x2="100%" y2="21.7465899%" id="linearGradient-3">
            <stop stop-color="#343A40" offset="0%"></stop>
            <stop stop-color="#212529" offset="100%"></stop>
        </linearGradient>
        <linearGradient x1="89.8514271%" y1="75.596621%" x2="87.5368448%" y2="-47.9435886%" id="linearGradient-4">
            <stop stop-color="#343A40" offset="0%"></stop>
            <stop stop-color="#212529" offset="100%"></stop>
        </linearGradient>
        <linearGradient x1="16.3464636%" y1="-83.1082102%" x2="16.3464636%" y2="80.5394693%" id="linearGradient-5">
            <stop stop-color="#495057" offset="0%"></stop>
            <stop stop-color="#343A40" offset="100%"></stop>
        </linearGradient>
        <linearGradient x1="50%" y1="0%" x2="50%" y2="100%" id="linearGradient-6">
            <stop stop-color="#F03E3E" offset="0%"></stop>
            <stop stop-color="#C92A2A" offset="100%"></stop>
        </linearGradient>
        <linearGradient x1="50%" y1="0%" x2="50%" y2="100%" id="linearGradient-7">
            <stop stop-color="#F76707" offset="0%"></stop>
            <stop stop-color="#D9480F" offset="100%"></stop>
        </linearGradient>
        <linearGradient x1="50%" y1="0%" x2="50%" y2="100%" id="linearGradient-8">
            <stop stop-color="#F59F00" offset="0%"></stop>
            <stop stop-color="#E67700" offset="100%"></stop>
        </linearGradient>
        <linearGradient x1="50%" y1="0%" x2="50%" y2="97.7419483%" id="linearGradient-9">
            <stop stop-color="#1C7ED6" offset="0%"></stop>
            <stop stop-color="#1864AB" offset="100%"></stop>
        </linearGradient>
        <linearGradient x1="50%" y1="0%" x2="50%" y2="100%" id="linearGradient-10">
            <stop stop-color="#37B24D" offset="0%"></stop>
            <stop stop-color="#2B8A3E" offset="100%"></stop>
        </linearGradient>
        <linearGradient x1="50%" y1="0%" x2="50%" y2="100%" id="linearGradient-11">
            <stop stop-color="#4263EB" offset="0%"></stop>
            <stop stop-color="#364FC7" offset="100%"></stop>
        </linearGradient>
        <linearGradient x1="50%" y1="0%" x2="50%" y2="100%" id="linearGradient-12">
            <stop stop-color="#AE3EC9" offset="0%"></stop>
            <stop stop-color="#862E9C" offset="100%"></stop>
        </linearGradient>
        <linearGradient x1="50%" y1="0%" x2="50%" y2="100%" id="linearGradient-13">
            <stop stop-color="#D6336C" offset="0%"></stop>
            <stop stop-color="#A61E4D" offset="100%"></stop>
        </linearGradient>
        <linearGradient x1="0%" y1="0%" x2="100%" y2="91.4821149%" id="linearGradient-14">
            <stop stop-color="#C2255C" offset="0%"></stop>
            <stop stop-color="#A61E4D" offset="100%"></stop>
        </linearGradient>
    </defs>
    <g id="Page-1" stroke="none" stroke-width="1" fill="none" fill-rule="evenodd">
        <g id="Favicon">
            <mask id="mask-2" fill="white">
                <use xlink:href="#path-1"></use>
            </mask>
            <g id="Mask"></g>
            <g mask="url(#mask-2)">
                <g id="Bookshelf">
                    <polygon id="Rectangle-2-Copy-2" fill="url(#linearGradient-3)" points="13 0 27 5.09715703 27 75.902843 13 81"></polygon>
                    <rect id="Rectangle-2-Copy-3" fill="url(#linearGradient-4)" x="13" y="74" width="79" height="10"></rect>
                    <path d="M13,79 L92,79 L92,92 L0,92 L0,79 L0,0 L13,0 L13,79 Z" id="Combined-Shape" fill="url(#linearGradient-5)"></path>
                </g>
                <g id="Records" transform="translate(13.000000, 15.000000)">
                    <g id="Red" transform="translate(0.000000, 1.000000)">
                        <polygon id="Rectangle-Copy-8" fill="#E03131" points="7 0.5793686 21 5.66186576 21 58.0841421 7 63"></polygon>
                        <polygon id="Rectangle" fill="url(#linearGradient-6)" points="0 0.5793686 7 0.5793686 7 63 1.94289029e-16 63"></polygon>
                    </g>
                    <g id="Orange" transform="translate(7.000000, 2.000000)">
                        <polygon id="Rectangle-Copy" fill="url(#linearGradient-7)" points="0 0.596317753 7 0.596317753 7 62 1.94289029e-16 62"></polygon>
                        <polygon id="Rectangle-Copy-9" fill="#E8590C" points="7 0.596317753 21 5.68466554 21 56.9056974 7 62"></polygon>
                    </g>
                    <g id="Yellow" transform="translate(14.000000, 1.000000)">
                        <polygon id="Rectangle-Copy-2" fill="url(#linearGradient-8)" points="0 0.5793686 7 0.5793686 7 63 1.94289029e-16 63"></polygon>
                        <polygon id="Rectangle-Copy-10" fill="#F08C00" points="7 0.5793686 21 5.66095845 21 58.0850197 7 63"></polygon>
                    </g>
                    <g id="Blue" transform="translate(21.000000, 2.000000)">
                        <polygon id="Rectangle-Copy-3" fill="url(#linearGradient-9)" points="0 0.596317753 7 0.596317753 7 62 0 62"></polygon>
                        <polygon id="Rectangle-Copy-11" fill="#1971C2" points="7 0.596317753 21 5.68672452 21 56.9036361 7 62"></polygon>
                    </g>
                    <g id="Green" transform="translate(28.000000, 0.000000)">
                        <polygon id="Rectangle-Copy-4" fill="url(#linearGradient-10)" points="0 0.562419448 7 0.562419448 7 64 0 64"></polygon>
                        <polygon id="Rectangle-Copy-12" fill="#2F9E44" points="7 0.562419448 21 5.65671157 21 58.9057079 7 64"></polygon>
                    </g>
                    <g id="Purple" transform="translate(35.000000, 1.000000)">
                        <polygon id="Rectangle-Copy-5" fill="url(#linearGradient-11)" points="0 0.5793686 7 0.5793686 7 63 5.82867088e-16 63"></polygon>
                        <polygon id="Rectangle-Copy-13" fill="#3B5BDB" points="7 0.5793686 21 5.67616074 21 58.0703158 7 63"></polygon>
                    </g>
                    <g id="Magenta" transform="translate(42.000000, 2.000000)">
                        <polygon id="Rectangle-Copy-6" fill="url(#linearGradient-12)" points="0 0.596317753 7 0.596317753 7 62 0 62"></polygon>
                        <polygon id="Rectangle-Copy-14" fill="#9C36B5" points="7 0.596317753 21 5.68531935 21 56.9050429 7 62"></polygon>
                    </g>
                    <g id="Pink" transform="translate(49.000000, 1.000000)">
                        <polygon id="Rectangle-Copy-7" fill="url(#linearGradient-13)" points="0 0.5793686 7 0.5793686 7 63 1.94289029e-16 63"></polygon>
                        <polygon id="Rectangle-Copy-15" fill="url(#linearGradient-14)" points="7 0.5793686 21 5.66931454 21 58.0769375 7 63"></polygon>
                    </g>
                </g>
            </g>
        </g>
    </g>
</svg>