<?xml version="1.0" encoding="UTF-8"?>
<svg width="302px" height="77px" viewBox="0 0 302 77" version="1.1" xmlns="http://www.w3.org/2000/svg" xmlns:xlink="http://www.w3.org/1999/xlink">
    <!-- Generator: Sketch 48.2 (47327) - http://www.bohemiancoding.com/sketch -->
    <title>Shelf Logo</title>
    <desc>Created with Sketch.</desc>
    <defs>
        <rect id="path-1" x="0" y="0" width="77" height="77" rx="19"></rect>
        <linearGradient x1="36.8131874%" y1="8.02930256%" x2="100%" y2="21.7465899%" id="linearGradient-3">
            <stop stop-color="#343A40" offset="0%"></stop>
            <stop stop-color="#212529" offset="100%"></stop>
        </linearGradient>
        <linearGradient x1="89.8514271%" y1="75.596621%" x2="87.5368448%" y2="-47.9435886%" id="linearGradient-4">
            <stop stop-color="#343A40" offset="0%"></stop>
            <stop stop-color="#212529" offset="100%"></stop>
        </linearGradient>
        <linearGradient x1="16.3464636%" y1="-83.1082102%" x2="16.3464636%" y2="80.5394693%" id="linearGradient-5">
            <stop stop-color="#495057" offset="0%"></stop>
            <stop stop-color="#343A40" offset="100%"></stop>
        </linearGradient>
        <linearGradient x1="50%" y1="0%" x2="50%" y2="100%" id="linearGradient-6">
            <stop stop-color="#F03E3E" offset="0%"></stop>
            <stop stop-color="#C92A2A" offset="100%"></stop>
        </linearGradient>
        <linearGradient x1="50%" y1="0%" x2="50%" y2="100%" id="linearGradient-7">
            <stop stop-color="#F76707" offset="0%"></stop>
            <stop stop-color="#D9480F" offset="100%"></stop>
        </linearGradient>
        <linearGradient x1="50%" y1="0%" x2="50%" y2="100%" id="linearGradient-8">
            <stop stop-color="#F59F00" offset="0%"></stop>
            <stop stop-color="#E67700" offset="100%"></stop>
        </linearGradient>
        <linearGradient x1="50%" y1="0%" x2="50%" y2="97.7419483%" id="linearGradient-9">
            <stop stop-color="#1C7ED6" offset="0%"></stop>
            <stop stop-color="#1864AB" offset="100%"></stop>
        </linearGradient>
        <linearGradient x1="50%" y1="0%" x2="50%" y2="100%" id="linearGradient-10">
            <stop stop-color="#37B24D" offset="0%"></stop>
            <stop stop-color="#2B8A3E" offset="100%"></stop>
        </linearGradient>
        <linearGradient x1="50%" y1="0%" x2="50%" y2="100%" id="linearGradient-11">
            <stop stop-color="#4263EB" offset="0%"></stop>
            <stop stop-color="#364FC7" offset="100%"></stop>
        </linearGradient>
        <linearGradient x1="50%" y1="0%" x2="50%" y2="100%" id="linearGradient-12">
            <stop stop-color="#AE3EC9" offset="0%"></stop>
            <stop stop-color="#862E9C" offset="100%"></stop>
        </linearGradient>
        <linearGradient x1="50%" y1="0%" x2="50%" y2="100%" id="linearGradient-13">
            <stop stop-color="#D6336C" offset="0%"></stop>
            <stop stop-color="#A61E4D" offset="100%"></stop>
        </linearGradient>
        <linearGradient x1="0%" y1="0%" x2="100%" y2="91.4821149%" id="linearGradient-14">
            <stop stop-color="#C2255C" offset="0%"></stop>
            <stop stop-color="#A61E4D" offset="100%"></stop>
        </linearGradient>
    </defs>
    <g id="Page-1" stroke="none" stroke-width="1" fill="none" fill-rule="evenodd">
        <g id="Shelf-Logo">
            <path d="M84,54.5 L96.3112948,54.5 C96.7116621,61.9 102.016529,65.4 108.022039,65.4 C114.628099,65.4 118.231405,62 118.231405,57.8 C118.231405,52.1 112.826446,49.4 104.719008,45 C90.405877,36.8 85.5013774,31.7 85.5013774,22.2 C85.5013774,11.4 94.8099174,4 106.520661,4 C119.432507,4 127.940312,13.6 128.240588,25.7 L115.929293,25.7 C115.629017,19.4 111.92562,15.6 106.520661,15.6 C101.816345,15.6 97.8126722,18.4 97.8126722,22.7 C97.8126722,28.1 101.916437,30.2 109.123049,34 C122.635445,41.3 130.5427,47.4 130.5427,58.2 C130.5427,70.2 120.433425,77 108.022039,77 C93.1083563,77 84.3002755,66.2 84,54.5 Z M167.176309,24.4 C179.387511,24.4 185.793388,32.3 185.793388,46.1 L185.793388,76 L173.482094,76 L173.482094,51.8 C173.482094,40 169.178145,36 162.371901,36 C153.764004,36 148.65932,42.5 148.359045,50.7 L148.359045,76 L136.04775,76 L136.04775,1 L148.359045,1 L148.359045,32.8 C153.263545,28 159.56933,24.4 167.176309,24.4 Z M243.94674,51.3 L243.94674,54.5 L205.61157,54.5 C205.911846,60.7 210.616162,66.1 219.524334,66.1 C225.930211,66.1 230.033976,62.7 232.035813,59.2 L242.84573,60.4 C241.344353,67.3 233.437098,77 219.424242,77 C203.809917,77 193.300275,65.2 193.300275,50.4 C193.300275,36.3 203.309458,24.4 218.623508,24.4 C234.237833,24.4 243.94674,36.8 243.94674,51.3 Z M218.623508,35.3 C211.116621,35.3 205.911846,40.2 205.61157,46 L231.635445,46 C231.235078,40.4 226.330579,35.3 218.623508,35.3 Z M263.364555,1 L263.364555,76 L251.05326,76 L251.05326,1 L263.364555,1 Z M296.194674,15.6 C290.48944,15.6 289.088154,18.8 289.088154,23.8 L289.088154,25.4 L301.699725,25.4 L301.699725,37 L289.088154,37 L289.088154,76 L276.77686,76 L276.77686,37 L271.271809,37 L271.271809,25.4 L276.77686,25.4 L276.77686,22.1 C276.77686,7.9 284.984389,4 291.990817,4 C296.494949,4 300.198347,5.7 302,7 L302,17.3 C301.199265,16.8 298.496786,15.6 296.194674,15.6 Z" id="Shelf-(Outlines)" fill="#212529"></path>
            <g id="Favicon">
                <mask id="mask-2" fill="white">
                    <use xlink:href="#path-1"></use>
                </mask>
                <g id="Mask"></g>
                <g mask="url(#mask-2)">
                    <g id="Bookshelf">
                        <polygon id="Rectangle-2-Copy-2" fill="url(#linearGradient-3)" points="10.8804348 0 22.5978261 4.26609882 22.5978261 63.5273794 10.8804348 67.7934783"></polygon>
                        <rect id="Rectangle-2-Copy-3" fill="url(#linearGradient-4)" x="10.8804348" y="61.9347826" width="66.1195652" height="8.36956522"></rect>
                        <path d="M10.8804348,66.1195652 L77,66.1195652 L77,77 L0,77 L0,66.1195652 L0,0 L10.8804348,0 L10.8804348,66.1195652 Z" id="Combined-Shape" fill="url(#linearGradient-5)"></path>
                    </g>
                    <g id="Records" transform="translate(10.880435, 12.554348)">
                        <g id="Red" transform="translate(0.000000, 0.836957)">
                            <polygon id="Rectangle-Copy-8" fill="#E03131" points="5.85869565 0.484906328 17.576087 4.73873547 17.576087 48.6139015 5.85869565 52.7282609"></polygon>
                            <polygon id="Rectangle" fill="url(#linearGradient-6)" points="0 0.484906328 5.85869565 0.484906328 5.85869565 52.7282609 1.6261147e-16 52.7282609"></polygon>
                        </g>
                        <g id="Orange" transform="translate(5.858696, 1.673913)">
                            <polygon id="Rectangle-Copy" fill="url(#linearGradient-7)" points="0 0.499092032 5.85869565 0.499092032 5.85869565 51.8913043 1.6261147e-16 51.8913043"></polygon>
                            <polygon id="Rectangle-Copy-9" fill="#E8590C" points="5.85869565 0.499092032 17.576087 4.7578179 17.576087 47.6275946 5.85869565 51.8913043"></polygon>
                        </g>
                        <g id="Yellow" transform="translate(11.717391, 0.836957)">
                            <polygon id="Rectangle-Copy-2" fill="url(#linearGradient-8)" points="0 0.484906328 5.85869565 0.484906328 5.85869565 52.7282609 1.6261147e-16 52.7282609"></polygon>
                            <polygon id="Rectangle-Copy-10" fill="#F08C00" points="5.85869565 0.484906328 17.576087 4.7379761 17.576087 48.614636 5.85869565 52.7282609"></polygon>
                        </g>
                        <g id="Blue" transform="translate(17.576087, 1.673913)">
                            <polygon id="Rectangle-Copy-3" fill="url(#linearGradient-9)" points="0 0.499092032 5.85869565 0.499092032 5.85869565 51.8913043 0 51.8913043"></polygon>
                            <polygon id="Rectangle-Copy-11" fill="#1971C2" points="5.85869565 0.499092032 17.576087 4.75954117 17.576087 47.6258693 5.85869565 51.8913043"></polygon>
                        </g>
                        <g id="Green" transform="translate(23.434783, 0.000000)">
                            <polygon id="Rectangle-Copy-4" fill="url(#linearGradient-10)" points="0 0.470720625 5.85869565 0.470720625 5.85869565 53.5652174 0 53.5652174"></polygon>
                            <polygon id="Rectangle-Copy-12" fill="#2F9E44" points="5.85869565 0.470720625 17.576087 4.73442164 17.576087 49.3015164 5.85869565 53.5652174"></polygon>
                        </g>
                        <g id="Purple" transform="translate(29.293478, 0.836957)">
                            <polygon id="Rectangle-Copy-5" fill="url(#linearGradient-11)" points="0 0.484906328 5.85869565 0.484906328 5.85869565 52.7282609 4.87834411e-16 52.7282609"></polygon>
                            <polygon id="Rectangle-Copy-13" fill="#3B5BDB" points="5.85869565 0.484906328 17.576087 4.75069975 17.576087 48.6023295 5.85869565 52.7282609"></polygon>
                        </g>
                        <g id="Magenta" transform="translate(35.152174, 1.673913)">
                            <polygon id="Rectangle-Copy-6" fill="url(#linearGradient-12)" points="0 0.499092032 5.85869565 0.499092032 5.85869565 51.8913043 0 51.8913043"></polygon>
                            <polygon id="Rectangle-Copy-14" fill="#9C36B5" points="5.85869565 0.499092032 17.576087 4.75836511 17.576087 47.6270468 5.85869565 51.8913043"></polygon>
                        </g>
                        <g id="Pink" transform="translate(41.010870, 0.836957)">
                            <polygon id="Rectangle-Copy-7" fill="url(#linearGradient-13)" points="0 0.484906328 5.85869565 0.484906328 5.85869565 52.7282609 1.6261147e-16 52.7282609"></polygon>
                            <polygon id="Rectangle-Copy-15" fill="url(#linearGradient-14)" points="5.85869565 0.484906328 17.576087 4.74496977 17.576087 48.6078716 5.85869565 52.7282609"></polygon>
                        </g>
                    </g>
                </g>
            </g>
        </g>
    </g>
</svg>