<?xml version="1.0" encoding="UTF-8"?>
<svg width="297px" height="77px" viewBox="0 0 297 77" version="1.1" xmlns="http://www.w3.org/2000/svg" xmlns:xlink="http://www.w3.org/1999/xlink">
    <!-- Generator: Sketch 48.2 (47327) - http://www.bohemiancoding.com/sketch -->
    <title>Shelf with Text</title>
    <desc>Created with Sketch.</desc>
    <defs>
        <linearGradient x1="50%" y1="0%" x2="50%" y2="100%" id="linearGradient-1">
            <stop stop-color="#D6336C" offset="0%"></stop>
            <stop stop-color="#A61E4D" offset="100%"></stop>
        </linearGradient>
        <linearGradient x1="50%" y1="0%" x2="50%" y2="100%" id="linearGradient-2">
            <stop stop-color="#AE3EC9" offset="0%"></stop>
            <stop stop-color="#862E9C" offset="100%"></stop>
        </linearGradient>
        <linearGradient x1="50%" y1="0%" x2="50%" y2="100%" id="linearGradient-3">
            <stop stop-color="#4263EB" offset="0%"></stop>
            <stop stop-color="#364FC7" offset="100%"></stop>
        </linearGradient>
        <linearGradient x1="50%" y1="0%" x2="50%" y2="100%" id="linearGradient-4">
            <stop stop-color="#37B24D" offset="0%"></stop>
            <stop stop-color="#2B8A3E" offset="100%"></stop>
        </linearGradient>
        <linearGradient x1="50%" y1="0%" x2="50%" y2="100%" id="linearGradient-5">
            <stop stop-color="#1C7ED6" offset="0%"></stop>
            <stop stop-color="#1864AB" offset="97.7419483%"></stop>
        </linearGradient>
        <linearGradient x1="50%" y1="0%" x2="50%" y2="100%" id="linearGradient-6">
            <stop stop-color="#F59F00" offset="0%"></stop>
            <stop stop-color="#E67700" offset="100%"></stop>
        </linearGradient>
        <linearGradient x1="50%" y1="0%" x2="50%" y2="100%" id="linearGradient-7">
            <stop stop-color="#F76707" offset="0%"></stop>
            <stop stop-color="#D9480F" offset="100%"></stop>
        </linearGradient>
        <linearGradient x1="50%" y1="0%" x2="50%" y2="100%" id="linearGradient-8">
            <stop stop-color="#F03E3E" offset="0%"></stop>
            <stop stop-color="#C92A2A" offset="100%"></stop>
        </linearGradient>
    </defs>
    <g id="Page-1" stroke="none" stroke-width="1" fill="none" fill-rule="evenodd">
        <path d="M78.6,54.5 L90.9,54.5 C91.3,61.9 96.6,65.4 102.6,65.4 C109.2,65.4 112.8,62 112.8,57.8 C112.8,52.1 107.4,49.4 99.3,45 C85,36.8 80.1,31.7 80.1,22.2 C80.1,11.4 89.4,4 101.1,4 C114,4 122.5,13.6 122.8,25.7 L110.5,25.7 C110.2,19.4 106.5,15.6 101.1,15.6 C96.4,15.6 92.4,18.4 92.4,22.7 C92.4,28.1 96.5,30.2 103.7,34 C117.2,41.3 125.1,47.4 125.1,58.2 C125.1,70.2 115,77 102.6,77 C87.7,77 78.9,66.2 78.6,54.5 Z M161.7,24.4 C173.9,24.4 180.3,32.3 180.3,46.1 L180.3,76 L168,76 L168,51.8 C168,40 163.7,36 156.9,36 C148.3,36 143.2,42.5 142.9,50.7 L142.9,76 L130.6,76 L130.6,1 L142.9,1 L142.9,32.8 C147.8,28 154.1,24.4 161.7,24.4 Z M238.4,51.3 L238.4,54.5 L200.1,54.5 C200.4,60.7 205.1,66.1 214,66.1 C220.4,66.1 224.5,62.7 226.5,59.2 L237.3,60.4 C235.8,67.3 227.9,77 213.9,77 C198.3,77 187.8,65.2 187.8,50.4 C187.8,36.3 197.8,24.4 213.1,24.4 C228.7,24.4 238.4,36.8 238.4,51.3 Z M213.1,35.3 C205.6,35.3 200.4,40.2 200.1,46 L226.1,46 C225.7,40.4 220.8,35.3 213.1,35.3 Z M257.8,1 L257.8,76 L245.5,76 L245.5,1 L257.8,1 Z M290.6,15.6 C284.9,15.6 283.5,18.8 283.5,23.8 L283.5,25.4 L296.1,25.4 L296.1,37 L283.5,37 L283.5,76 L271.2,76 L271.2,37 L265.7,37 L265.7,25.4 L271.2,25.4 L271.2,22.1 C271.2,7.9 279.4,4 286.4,4 C290.9,4 294.6,5.7 296.4,7 L296.4,17.3 C295.6,16.8 292.9,15.6 290.6,15.6 Z" id="Shelf-Copy" fill="#212529"></path>
        <g id="Lines-Copy">
            <rect id="Rectangle-Copy-7" fill="url(#linearGradient-1)" x="63" y="1" width="9" height="76"></rect>
            <rect id="Rectangle-Copy-6" fill="url(#linearGradient-2)" x="54" y="2" width="9" height="75"></rect>
            <rect id="Rectangle-Copy-5" fill="url(#linearGradient-3)" x="45" y="1" width="9" height="76"></rect>
            <rect id="Rectangle-Copy-4" fill="url(#linearGradient-4)" x="36" y="0" width="9" height="77"></rect>
            <rect id="Rectangle-Copy-3" fill="url(#linearGradient-5)" x="27" y="2" width="9" height="75"></rect>
            <rect id="Rectangle-Copy-2" fill="url(#linearGradient-6)" x="18" y="1" width="9" height="76"></rect>
            <rect id="Rectangle-Copy" fill="url(#linearGradient-7)" x="9" y="2" width="9" height="75"></rect>
            <rect id="Rectangle" fill="url(#linearGradient-8)" x="0" y="1" width="9" height="76"></rect>
        </g>
    </g>
</svg>