<?xml version="1.0" encoding="UTF-8"?>
<svg width="296px" height="77px" viewBox="0 0 296 77" version="1.1" xmlns="http://www.w3.org/2000/svg" xmlns:xlink="http://www.w3.org/1999/xlink">
    <!-- Generator: Sketch 51.3 (57544) - http://www.bohemiancoding.com/sketch -->
    <title>Shelf Logo</title>
    <desc>Created with Sketch.</desc>
    <defs>
        <rect id="path-1" x="0" y="0" width="77" height="77" rx="19"></rect>
        <linearGradient x1="36.8131874%" y1="8.02930256%" x2="100%" y2="21.7465899%" id="linearGradient-3">
            <stop stop-color="#343A40" offset="0%"></stop>
            <stop stop-color="#212529" offset="100%"></stop>
        </linearGradient>
        <linearGradient x1="89.8514271%" y1="75.596621%" x2="87.5368448%" y2="-47.9435886%" id="linearGradient-4">
            <stop stop-color="#343A40" offset="0%"></stop>
            <stop stop-color="#212529" offset="100%"></stop>
        </linearGradient>
        <linearGradient x1="16.3464636%" y1="-83.1082102%" x2="16.3464636%" y2="80.5394693%" id="linearGradient-5">
            <stop stop-color="#495057" offset="0%"></stop>
            <stop stop-color="#343A40" offset="100%"></stop>
        </linearGradient>
        <linearGradient x1="50%" y1="0%" x2="50%" y2="100%" id="linearGradient-6">
            <stop stop-color="#F03E3E" offset="0%"></stop>
            <stop stop-color="#C92A2A" offset="100%"></stop>
        </linearGradient>
        <linearGradient x1="50%" y1="0%" x2="50%" y2="100%" id="linearGradient-7">
            <stop stop-color="#F76707" offset="0%"></stop>
            <stop stop-color="#D9480F" offset="100%"></stop>
        </linearGradient>
        <linearGradient x1="50%" y1="0%" x2="50%" y2="100%" id="linearGradient-8">
            <stop stop-color="#F59F00" offset="0%"></stop>
            <stop stop-color="#E67700" offset="100%"></stop>
        </linearGradient>
        <linearGradient x1="50%" y1="0%" x2="50%" y2="100%" id="linearGradient-9">
            <stop stop-color="#37B24D" offset="0%"></stop>
            <stop stop-color="#2B8A3E" offset="100%"></stop>
        </linearGradient>
        <linearGradient x1="50%" y1="0%" x2="50%" y2="97.7419483%" id="linearGradient-10">
            <stop stop-color="#1C7ED6" offset="0%"></stop>
            <stop stop-color="#1864AB" offset="100%"></stop>
        </linearGradient>
        <linearGradient x1="50%" y1="0%" x2="50%" y2="100%" id="linearGradient-11">
            <stop stop-color="#4263EB" offset="0%"></stop>
            <stop stop-color="#364FC7" offset="100%"></stop>
        </linearGradient>
        <linearGradient x1="50%" y1="0%" x2="50%" y2="100%" id="linearGradient-12">
            <stop stop-color="#AE3EC9" offset="0%"></stop>
            <stop stop-color="#862E9C" offset="100%"></stop>
        </linearGradient>
    </defs>
    <g id="Shelf-Logo" stroke="none" stroke-width="1" fill="none" fill-rule="evenodd">
        <path d="M85.4000598,54.0144737 L97.4734809,54.0144737 C97.8661124,61.2781579 103.068481,64.7136842 108.957955,64.7136842 C115.436376,64.7136842 118.97006,61.3763158 118.97006,57.2536842 C118.97006,51.6586842 113.669533,49.0084211 105.718744,44.6894737 C91.6821651,36.6405263 86.8724282,31.6344737 86.8724282,22.3094737 C86.8724282,11.7084211 96.0011124,4.44473684 107.485586,4.44473684 C120.147955,4.44473684 128.491376,13.8678947 128.785849,25.745 L116.712428,25.745 C116.417955,19.5610526 112.786112,15.8310526 107.485586,15.8310526 C102.872165,15.8310526 98.9458493,18.5794737 98.9458493,22.8002632 C98.9458493,28.1007895 102.970323,30.1621053 110.037691,33.8921053 C123.289007,41.0576316 131.043481,47.0452632 131.043481,57.6463158 C131.043481,69.4252632 121.129533,76.1 108.957955,76.1 C94.3324282,76.1 85.6945335,65.4989474 85.4000598,54.0144737 Z M164.738409,24.4689474 C176.713672,24.4689474 182.995778,32.2234211 182.995778,45.7692105 L182.995778,75.1184211 L170.922356,75.1184211 L170.922356,51.3642105 C170.922356,39.7815789 166.701567,35.8552632 160.02683,35.8552632 C151.585251,35.8552632 146.579199,42.2355263 146.284725,50.2844737 L146.284725,75.1184211 L134.211304,75.1184211 L134.211304,1.5 L146.284725,1.5 L146.284725,32.7142105 C151.094462,28.0026316 157.278409,24.4689474 164.738409,24.4689474 Z M237.794653,50.8734211 L237.794653,54.0144737 L200.200179,54.0144737 C200.494653,60.1002632 205.108074,65.4007895 213.844127,65.4007895 C220.126232,65.4007895 224.150706,62.0634211 226.113864,58.6278947 L236.714916,59.8057895 C235.242548,66.5786842 227.488074,76.1 213.745969,76.1 C198.433337,76.1 188.126758,64.5173684 188.126758,49.99 C188.126758,36.1497368 197.942548,24.4689474 212.960706,24.4689474 C228.273337,24.4689474 237.794653,36.6405263 237.794653,50.8734211 Z M212.960706,35.1681579 C205.598864,35.1681579 200.494653,39.9778947 200.200179,45.6710526 L225.721232,45.6710526 C225.3286,40.1742105 220.518864,35.1681579 212.960706,35.1681579 Z M254.606423,1.5 L254.606423,75.1184211 L242.533002,75.1184211 L242.533002,1.5 L254.606423,1.5 Z M288.595825,15.8310526 C283.000825,15.8310526 281.626615,18.9721053 281.626615,23.88 L281.626615,25.4505263 L293.99451,25.4505263 L293.99451,36.8368421 L281.626615,36.8368421 L281.626615,75.1184211 L269.553194,75.1184211 L269.553194,36.8368421 L264.15451,36.8368421 L264.15451,25.4505263 L269.553194,25.4505263 L269.553194,22.2113158 C269.553194,8.27289474 277.602141,4.44473684 284.473194,4.44473684 C288.890299,4.44473684 292.522141,6.11342105 294.288983,7.38947368 L294.288983,17.4997368 C293.50372,17.0089474 290.853457,15.8310526 288.595825,15.8310526 Z" id="Shelf-Copy" fill="#212529"></path>
        <g id="Favicon-Copy">
            <mask id="mask-2" fill="white">
                <use xlink:href="#path-1"></use>
            </mask>
            <g id="Mask"></g>
            <g id="Favicon" mask="url(#mask-2)">
                <g transform="translate(0.000000, -5.000000)">
                    <g id="Bookshelf-(Tight)" transform="translate(0.000000, 6.000000)">
                        <polygon id="Rectangle-2-Copy-2" fill="url(#linearGradient-3)" points="11.0217391 0.9 22.8913043 5.10317094 22.8913043 63.4903071 11.0217391 67.693478"></polygon>
                        <rect id="Rectangle-2-Copy-3" fill="url(#linearGradient-4)" x="11.0217391" y="60.9347826" width="66.9782609" height="8.36956522"></rect>
                        <path d="M11.0217391,65.1195652 L78,65.1195652 L78,76 L0,76 L0,65.1195652 L0,0.9 L11.0217391,0.9 L11.0217391,65.1195652 Z" id="Combined-Shape" fill="url(#linearGradient-5)"></path>
                    </g>
                    <g id="Records" transform="translate(11.021739, 17.554348)">
                        <g id="Red" transform="translate(0.000000, 0.836957)">
                            <polygon id="Rectangle-Copy-8" fill="#E03131" points="5.93478261 0.484906328 17.8043478 4.73873547 17.8043478 48.6139015 5.93478261 52.7282609"></polygon>
                            <polygon id="Rectangle" fill="url(#linearGradient-6)" points="0 0.484906328 5.93478261 0.484906328 5.93478261 52.7282609 1.64723307e-16 52.7282609"></polygon>
                        </g>
                        <g id="Orange" transform="translate(5.934783, 1.673913)">
                            <polygon id="Rectangle-Copy" fill="url(#linearGradient-7)" points="0 0.499092032 5.93478261 0.499092032 5.93478261 51.8913043 1.64723307e-16 51.8913043"></polygon>
                            <polygon id="Rectangle-Copy-9" fill="#E8590C" points="5.93478261 0.499092032 17.8043478 4.7578179 17.8043478 47.6275946 5.93478261 51.8913043"></polygon>
                        </g>
                        <g id="Yellow" transform="translate(11.869565, 0.836957)">
                            <polygon id="Rectangle-Copy-2" fill="url(#linearGradient-8)" points="0 0.484906328 5.93478261 0.484906328 5.93478261 52.7282609 1.64723307e-16 52.7282609"></polygon>
                            <polygon id="Rectangle-Copy-10" fill="#F08C00" points="5.93478261 0.484906328 17.8043478 4.7379761 17.8043478 48.614636 5.93478261 52.7282609"></polygon>
                        </g>
                        <g id="Green" transform="translate(17.807871, 0.000000)">
                            <polygon id="Rectangle-Copy-4" fill="url(#linearGradient-9)" points="0 0.470720625 5.93478261 0.470720625 7.69330015 1.26145971 8.06659518 52.8046291 5.93478261 53.5652174 0 53.5652174"></polygon>
                            <polygon id="Rectangle-Copy-15" fill="url(#linearGradient-9)" points="0 0.470720625 5.93478261 0.470720625 5.93478261 53.5652174 0 53.5652174"></polygon>
                            <polygon id="Rectangle-Copy-12" fill="#2F9E44" points="5.93478261 0.470720625 17.8043478 4.73442164 17.8043478 49.3015164 5.93478261 53.5652174"></polygon>
                        </g>
                        <g id="Blue" transform="translate(23.743975, 1.673913)">
                            <polygon id="Rectangle-Copy-3" fill="url(#linearGradient-10)" points="0 0.499092032 5.93478261 0.499092032 5.93478261 51.8913043 0 51.8913043"></polygon>
                            <polygon id="Rectangle-Copy-11" fill="#1971C2" points="5.93478261 0.499092032 17.8043478 4.75954117 17.8043478 47.6258693 5.93478261 51.8913043"></polygon>
                        </g>
                        <g id="Purple" transform="translate(29.673913, 0.836957)">
                            <polygon id="Rectangle-Copy-7" fill="url(#linearGradient-11)" points="0 0.484906328 5.93478261 0.484906328 7.43621972 1.09890261 9.20680782 51.5282797 5.93478261 52.7282609 4.94169922e-16 52.7282609"></polygon>
                            <polygon id="Rectangle-Copy-5" fill="url(#linearGradient-11)" points="0 0.484906328 5.93478261 0.484906328 5.93478261 52.7282609 4.94169922e-16 52.7282609"></polygon>
                            <polygon id="Rectangle-Copy-13" fill="#3B5BDB" points="5.93478261 0.484906328 17.8043478 4.75069975 17.8043478 48.6023295 5.93478261 52.7282609"></polygon>
                        </g>
                        <g id="Magenta" transform="translate(35.608696, 1.673913)">
                            <polygon id="Rectangle-Copy-17" fill="url(#linearGradient-12)" points="0.0719017946 0.499092032 6.0066844 0.499092032 8.78828161 1.53880528 16.0634668 50.7646196 13.4105139 51.8913043 7.47573126 51.8913043"></polygon>
                            <polygon id="Rectangle-Copy-6" fill="url(#linearGradient-12)" points="0.0719017946 0.499092032 6.0066844 0.499092032 13.4105139 51.8913043 7.47573126 51.8913043"></polygon>
                            <polygon id="Rectangle-Copy-14" fill="#9C36B5" points="6.00662544 0.499092032 18.4893005 4.75836511 24.6759985 47.7074038 13.4043834 51.8913043"></polygon>
                        </g>
                    </g>
                </g>
            </g>
        </g>
    </g>
</svg>